<svg width="16" height="16" viewBox="0 0 16 16" fill="none" xmlns="http://www.w3.org/2000/svg"><path d="M2.49913 12.6251C2.61913 12.6251 2.73913 12.6051 2.85713 12.5661L6.29013 11.4201L13.2891 4.4221C14.0191 3.6911 14.0191 2.5011 13.2891 1.7701L12.2291 0.710098C11.4971 -0.0199023 10.3091 -0.0199023 9.57713 0.710098L2.57813 7.7091L1.43313 11.1451C1.29813 11.5511 1.40213 11.9931 1.70513 12.2951C1.92113 12.5101 2.20613 12.6251 2.49913 12.6251ZM10.4611 1.5951C10.7031 1.3511 11.1021 1.3511 11.3441 1.5951L12.4051 2.6561C12.6491 2.8991 12.6491 3.2961 12.4051 3.5391L11.3401 4.6051L9.39513 2.6601L10.4611 1.5951ZM3.67013 8.3851L8.51013 3.5451L10.4541 5.4891L5.61413 10.3301L2.69713 11.3031L3.67013 8.3851Z" fill="white"/><path d="M14 13.5H2C1.724 13.5 1.5 13.724 1.5 14C1.5 14.276 1.724 14.5 2 14.5H14C14.276 14.5 14.5 14.276 14.5 14C14.5 13.724 14.276 13.5 14 13.5Z" fill="white"/></svg>
