<svg width="16" height="16" viewBox="0 0 16 16" fill="none" xmlns="http://www.w3.org/2000/svg"><path d="M11.618 12.868L11.254 13.25H10.423C10.335 13.396 10.182 13.5 10 13.5H2C1.725 13.5 1.5 13.275 1.5 13V2C1.5 1.725 1.725 1.5 2 1.5H6.939L7 1.561V4.5C7 4.776 7.224 5 7.5 5H10.439L10.5 5.061V6.515L12 5.015V4.75C12 4.551 11.921 4.36 11.78 4.22L7.78 0.22C7.64 0.079 7.449 0 7.25 0H2C0.895 0 0 0.895 0 2V13C0 14.105 0.895 15 2 15H10C11.105 15 12 14.105 12 13V12.486L11.618 12.868Z" fill="white"/><path d="M13.836 4.946C13.962 4.819 14.13 4.75 14.309 4.75C14.487 4.75 14.655 4.819 14.782 4.945L15.805 5.969C15.931 6.094 16 6.262 16 6.441C16 6.621 15.931 6.789 15.805 6.915L14.9397 7.78033L12.9707 5.81134L13.836 4.946Z" fill="white"/><path d="M12.4403 6.34167L8.84 9.942C8.793 9.989 8.767 10.052 8.767 10.119V11.75C8.767 11.888 8.879 12 9.017 12H10.616L10.793 11.927L14.4093 8.31067L12.4403 6.34167Z" fill="white"/></svg>
